<?xml version="1.0" encoding="UTF-8" standalone="no"?>
<!DOCTYPE svg PUBLIC "-//W3C//DTD SVG 1.1//EN" "http://www.w3.org/Graphics/SVG/1.1/DTD/svg11.dtd">
<svg width="100%" height="100%" viewBox="0 0 1000 1000" version="1.1" xmlns="http://www.w3.org/2000/svg" xmlns:xlink="http://www.w3.org/1999/xlink" xml:space="preserve" xmlns:serif="http://www.serif.com/" style="fill-rule:evenodd;clip-rule:evenodd;stroke-linejoin:round;stroke-miterlimit:1.41421;">
    <g id="path16" transform="matrix(0.949257,0,0,-0.949257,234.087,847.277)">
        <path d="M296.28,554.842C342.48,554.842 379.92,592.282 380.04,638.482C380.04,637.162 380.04,637.282 380.04,638.602C380.04,684.802 342.48,722.242 296.28,722.242C250.08,722.242 212.64,684.802 212.64,638.602C212.64,637.282 212.64,637.162 212.64,638.482C212.64,592.282 250.08,554.842 296.28,554.842Z" style="fill:rgb(255,144,0);fill-rule:nonzero;"/>
    </g>
    <g id="path20" transform="matrix(0.949257,0,0,-0.949257,234.087,847.277)">
        <path d="M495.12,410.242C541.32,410.242 578.76,447.682 578.88,493.882C578.88,492.562 578.88,492.682 578.88,494.002C578.88,540.202 541.32,577.642 495.12,577.642C448.92,577.642 411.48,540.202 411.48,494.002C411.48,492.682 411.48,492.562 411.48,493.882C411.48,447.682 448.92,410.242 495.12,410.242Z" style="fill:rgb(255,145,0);fill-rule:nonzero;"/>
    </g>
    <g id="path24" transform="matrix(0.949257,0,0,-0.949257,234.087,847.277)">
        <path d="M419.16,176.601C465.36,176.601 502.8,214.041 502.92,260.242C502.92,258.922 502.92,259.042 502.92,260.362C502.92,306.562 465.36,344.002 419.16,344.002C372.96,344.002 335.52,306.562 335.52,260.362C335.52,259.042 335.52,258.922 335.52,260.242C335.52,214.041 372.96,176.601 419.16,176.601Z" style="fill:rgb(255,142,0);fill-rule:nonzero;"/>
    </g>
    <g id="path28" transform="matrix(0.949257,0,0,-0.949257,234.087,847.277)">
        <path d="M173.4,176.601C219.6,176.601 257.04,214.041 257.16,260.242C257.16,258.922 257.16,259.042 257.16,260.362C257.16,306.562 219.6,344.002 173.4,344.002C127.2,344.002 89.76,306.562 89.76,260.362C89.76,259.042 89.76,258.922 89.76,260.242C89.76,214.041 127.2,176.601 173.4,176.601Z" style="fill:rgb(255,143,0);fill-rule:nonzero;"/>
    </g>
    <g id="path32" transform="matrix(0.949257,0,0,-0.949257,234.087,847.277)">
        <path d="M97.44,410.242C143.64,410.242 181.08,447.682 181.2,493.882C181.2,492.562 181.2,492.682 181.2,494.002C181.2,540.202 143.64,577.642 97.44,577.642C51.24,577.642 13.8,540.202 13.8,494.002C13.8,492.682 13.8,492.562 13.8,493.882C13.8,447.682 51.24,410.242 97.44,410.242Z" style="fill:rgb(255,144,0);fill-rule:nonzero;"/>
    </g>
    <g id="path34" transform="matrix(0.949257,0,0,-0.949257,234.087,847.277)">
        <path d="M369.12,429.442C369.12,469.642 336.48,502.162 296.28,502.162C256.08,502.162 223.56,469.642 223.56,429.442C223.56,428.242 223.56,428.242 223.56,429.322C223.56,389.242 256.08,356.602 296.28,356.602C336.48,356.602 369,389.242 369.12,429.322C369.12,428.242 369.12,428.242 369.12,429.442Z" style="fill:rgb(255,145,0);fill-rule:nonzero;"/>
    </g>
    <g id="path46" transform="matrix(0.949257,0,0,-0.949257,234.087,847.277)">
        <path d="M240.9,483.142L104.88,615.322L124.32,666.202L178.68,668.962L262.38,498.742C254.4,494.842 247.08,489.562 240.9,483.142Z" style="fill:rgb(0,199,255);fill-rule:nonzero;"/>
    </g>
    <g id="path52" transform="matrix(0.949257,0,0,-0.949257,234.087,847.277)">
        <path d="M487.92,615.322L468.48,666.202L414,668.962L330.36,498.742C338.4,494.842 345.6,489.562 351.78,483.142L487.92,615.322Z" style="fill:rgb(0,200,255);fill-rule:nonzero;"/>
    </g>
    <g id="path62" transform="matrix(0.949257,0,0,-0.949257,234.087,847.277)">
        <path d="M364.68,393.322C368.88,401.122 371.64,409.642 372.84,418.402L560.64,391.522L574.8,338.962L532.44,304.642L364.68,393.322Z" style="fill:rgb(0,201,255);fill-rule:nonzero;"/>
    </g>
    <g id="path76" transform="matrix(0.949257,0,0,-0.949257,234.087,847.277)">
        <path d="M296.4,352.042C300.84,352.042 305.28,352.522 309.54,353.302L342,166.281L296.4,136.521L250.8,166.281L283.14,353.302C287.4,352.522 291.84,352.042 296.4,352.042Z" style="fill:rgb(0,201,255);fill-rule:nonzero;"/>
    </g>
    <g id="path86" transform="matrix(0.949257,0,0,-0.949257,234.087,847.277)">
        <path d="M228.06,393.322L60.36,304.642L17.88,338.962L32.04,391.522L219.9,418.402C221.04,409.642 223.8,401.122 228.06,393.322Z" style="fill:rgb(0,199,255);fill-rule:nonzero;"/>
    </g>
</svg>
